<svg width="594" height="586" viewBox="0 0 594 586" fill="none" xmlns="http://www.w3.org/2000/svg">
<g clip-path="url(#clip0_4_3)">
<ellipse cx="144.5" cy="153.5" rx="38.5" ry="19.5" fill="#3BA1DA"/>
<path d="M495.372 0H200.95V294.501H495.372V0Z" fill="#FFAF66"/>
<path d="M498.747 0H495.372V294.501H498.747V0Z" fill="#FFAF66"/>
<path opacity="0.05" d="M498.747 0H495.372V294.501H498.747V0Z" fill="black"/>
<path opacity="0.05" d="M424.047 202.935V125.884H360.948V170.649H263.207V249.911H221.665V294.501H263.207H271.209H481.21V202.935H424.047Z" fill="black"/>
<path opacity="0.34" d="M414.997 134.25H369.047V142.616H414.997V134.25Z" fill="#FFFFFA"/>
<path opacity="0.34" d="M414.997 151.586H369.047V159.952H414.997V151.586Z" fill="#FFFFFA"/>
<path opacity="0.34" d="M414.997 168.923H369.047V177.289H414.997V168.923Z" fill="#FFFFFA"/>
<path opacity="0.34" d="M473.061 211.056H464.592V219.422H473.061V211.056Z" fill="#FFFFFA"/>
<path opacity="0.34" d="M473.061 228.392H464.592V236.758H473.061V228.392Z" fill="#FFFFFA"/>
<path opacity="0.34" d="M473.061 245.728H464.592V254.094H473.061V245.728Z" fill="#FFFFFA"/>
<path opacity="0.34" d="M457.393 211.056H448.924V219.422H457.393V211.056Z" fill="#FFFFFA"/>
<path opacity="0.34" d="M457.393 228.392H448.924V236.758H457.393V228.392Z" fill="#FFFFFA"/>
<path opacity="0.34" d="M457.393 245.728H448.924V254.094H457.393V245.728Z" fill="#FFFFFA"/>
<path opacity="0.34" d="M442.149 211.056H433.68V219.422H442.149V211.056Z" fill="#FFFFFA"/>
<path opacity="0.34" d="M442.149 228.392H433.68V236.758H442.149V228.392Z" fill="#FFFFFA"/>
<path opacity="0.34" d="M442.149 245.728H433.68V254.094H442.149V245.728Z" fill="#FFFFFA"/>
<path d="M495.372 145.598H436.13V0H431.23V145.598H271.209V0H266.31V145.598H200.95V150.499H266.31V294.501H271.209V150.499H431.23V294.501H436.13V150.499H495.372V145.598Z" fill="white"/>
<path d="M507.101 294.146H189.221V303.94H507.101V294.146Z" fill="#FFAF66"/>
<path opacity="0.1" d="M507.101 294.146H189.221V303.94H507.101V294.146Z" fill="black"/>
<path opacity="0.1" d="M511.69 294.146H507.101V303.94H511.69V294.146Z" fill="black"/>
<path opacity="0.1" d="M511.69 294.146H507.101V303.94H511.69V294.146Z" fill="black"/>
<path d="M498.747 5.25703H200.95V12.5391H498.747V5.25703Z" fill="white"/>
<path d="M498.747 18.8583H200.95V26.1403H498.747V18.8583Z" fill="white"/>
<path d="M498.747 32.4588H200.95V39.7409H498.747V32.4588Z" fill="white"/>
<path d="M498.747 46.0601H200.95V53.3421H498.747V46.0601Z" fill="white"/>
<path d="M498.747 59.6613H200.95V66.9434H498.747V59.6613Z" fill="white"/>
<path d="M467.116 0H462.654V75.1557H467.116V0Z" fill="white"/>
<path d="M465.264 85.9492C468.65 85.9492 471.395 83.2035 471.395 79.8164C471.395 76.4293 468.65 73.6835 465.264 73.6835C461.878 73.6835 459.133 76.4293 459.133 79.8164C459.133 83.2035 461.878 85.9492 465.264 85.9492Z" fill="white"/>
<path d="M580.402 586H-4.52413C-4.58662 586 -4.6485 585.988 -4.70624 585.964C-4.76397 585.94 -4.81643 585.905 -4.86062 585.861C-4.90481 585.816 -4.93986 585.764 -4.96378 585.706C-4.98769 585.648 -5 585.587 -5 585.524C-5 585.462 -4.98769 585.4 -4.96378 585.342C-4.93986 585.284 -4.90481 585.232 -4.86062 585.187C-4.81643 585.143 -4.76397 585.108 -4.70624 585.084C-4.6485 585.06 -4.58662 585.048 -4.52413 585.048H580.4C580.527 585.048 580.648 585.098 580.737 585.187C580.826 585.277 580.876 585.398 580.876 585.524C580.876 585.65 580.826 585.771 580.737 585.861C580.648 585.95 580.527 586 580.4 586H580.402Z" fill="#292A2E"/>
<g opacity="0.65">
<path opacity="0.65" d="M580.402 586H-4.52413C-4.58662 586 -4.6485 585.988 -4.70624 585.964C-4.76397 585.94 -4.81643 585.905 -4.86062 585.861C-4.90481 585.816 -4.93986 585.764 -4.96378 585.706C-4.98769 585.648 -5 585.587 -5 585.524C-5 585.462 -4.98769 585.4 -4.96378 585.342C-4.93986 585.284 -4.90481 585.232 -4.86062 585.187C-4.81643 585.143 -4.76397 585.108 -4.70624 585.084C-4.6485 585.06 -4.58662 585.048 -4.52413 585.048H580.4C580.527 585.048 580.648 585.098 580.737 585.187C580.826 585.277 580.876 585.398 580.876 585.524C580.876 585.65 580.826 585.771 580.737 585.861C580.648 585.95 580.527 586 580.4 586H580.402Z" fill="#292A2E"/>
</g>
<path d="M36.1987 585.163L34.8635 584.906L55.7311 377.486L57.0662 377.743L36.1987 585.163Z" fill="#494949"/>
<path d="M113.9 585.163L112.565 584.906L133.432 377.486L134.767 377.743L113.9 585.163Z" fill="#494949"/>
<path d="M285.653 585.163L286.988 584.906L266.122 377.486L264.786 377.743L285.653 585.163Z" fill="#494949"/>
<path d="M207.953 585.163L209.287 584.906L188.42 377.486L187.085 377.743L207.953 585.163Z" fill="#494949"/>
<path d="M180.278 286.2L178.931 286.38L191.121 377.707L192.469 377.527L180.278 286.2Z" fill="#494949"/>
<path d="M40.3563 286.199L39.0086 286.379L51.199 377.705L52.5466 377.525L40.3563 286.199Z" fill="#494949"/>
<path d="M192.352 370.927H55.4925C51.7999 370.927 48.8065 373.921 48.8065 377.614V377.615C48.8065 381.309 51.7999 384.303 55.4925 384.303H192.352C196.045 384.303 199.038 381.309 199.038 377.615V377.614C199.038 373.921 196.045 370.927 192.352 370.927Z" fill="#292A2E"/>
<path opacity="0.8" d="M192.352 370.927H55.4925C51.7999 370.927 48.8065 373.921 48.8065 377.614V377.615C48.8065 381.309 51.7999 384.303 55.4925 384.303H192.352C196.045 384.303 199.038 381.309 199.038 377.615V377.614C199.038 373.921 196.045 370.927 192.352 370.927Z" fill="white"/>
<path d="M192.35 384.983H55.4925C53.5511 384.964 51.6956 384.18 50.3294 382.8C48.9632 381.42 48.1968 379.557 48.1968 377.615C48.1968 375.673 48.9632 373.809 50.3294 372.43C51.6956 371.05 53.5511 370.265 55.4925 370.247H192.35C194.291 370.265 196.147 371.05 197.513 372.43C198.879 373.809 199.645 375.673 199.645 377.615C199.645 379.557 198.879 381.42 197.513 382.8C196.147 384.18 194.291 384.964 192.35 384.983V384.983ZM55.4925 371.607C53.9105 371.623 52.3991 372.264 51.2864 373.389C50.1737 374.514 49.5495 376.032 49.5495 377.615C49.5495 379.197 50.1737 380.716 51.2864 381.841C52.3991 382.966 53.9105 383.606 55.4925 383.623H192.35C193.932 383.606 195.443 382.966 196.556 381.841C197.668 380.716 198.293 379.197 198.293 377.615C198.293 376.032 197.668 374.514 196.556 373.389C195.443 372.264 193.932 371.623 192.35 371.607H55.4925Z" fill="#292A2E"/>
<path d="M267.468 370.927H130.608C126.916 370.927 123.922 373.921 123.922 377.614V377.615C123.922 381.309 126.916 384.303 130.608 384.303H267.468C271.161 384.303 274.154 381.309 274.154 377.615V377.614C274.154 373.921 271.161 370.927 267.468 370.927Z" fill="white"/>
<path d="M267.469 384.983H130.609C129.636 384.992 128.67 384.809 127.768 384.442C126.866 384.076 126.046 383.535 125.354 382.85C124.663 382.165 124.114 381.349 123.739 380.451C123.365 379.552 123.172 378.588 123.172 377.615C123.172 376.641 123.365 375.677 123.739 374.779C124.114 373.88 124.663 373.065 125.354 372.38C126.046 371.694 126.866 371.153 127.768 370.787C128.67 370.421 129.636 370.237 130.609 370.247H267.469C268.442 370.237 269.408 370.421 270.31 370.787C271.212 371.153 272.032 371.694 272.724 372.38C273.415 373.065 273.964 373.88 274.339 374.779C274.713 375.677 274.906 376.641 274.906 377.615C274.906 378.588 274.713 379.552 274.339 380.451C273.964 381.349 273.415 382.165 272.724 382.85C272.032 383.535 271.212 384.076 270.31 384.442C269.408 384.809 268.442 384.992 267.469 384.983V384.983ZM130.609 371.607C129.815 371.598 129.027 371.747 128.291 372.046C127.555 372.344 126.885 372.785 126.32 373.344C125.756 373.902 125.308 374.568 125.002 375.301C124.696 376.034 124.538 376.82 124.538 377.615C124.538 378.409 124.696 379.196 125.002 379.929C125.308 380.662 125.756 381.327 126.32 381.886C126.885 382.445 127.555 382.886 128.291 383.184C129.027 383.482 129.815 383.631 130.609 383.623H267.469C268.263 383.631 269.051 383.482 269.787 383.184C270.523 382.886 271.193 382.445 271.758 381.886C272.322 381.327 272.77 380.662 273.076 379.929C273.382 379.196 273.54 378.409 273.54 377.615C273.54 376.82 273.382 376.034 273.076 375.301C272.77 374.568 272.322 373.902 271.758 373.344C271.193 372.785 270.523 372.344 269.787 372.046C269.051 371.747 268.263 371.598 267.469 371.607H130.609Z" fill="#292A2E"/>
<path d="M172.781 286.288H40.0498C37.8798 286.288 35.784 285.499 34.1535 284.066C32.523 282.634 31.4693 280.657 31.1892 278.505L22.4094 211.063C22.2452 209.802 22.3517 208.521 22.7219 207.305C23.0921 206.089 23.7175 204.965 24.5562 204.01C25.3949 203.055 26.4276 202.29 27.5855 201.765C28.7434 201.241 29.9998 200.97 31.2707 200.97H164.001C166.171 200.97 168.267 201.76 169.898 203.192C171.528 204.625 172.582 206.602 172.862 208.754L181.642 276.196C181.806 277.457 181.699 278.738 181.329 279.954C180.959 281.17 180.334 282.293 179.495 283.248C178.656 284.203 177.624 284.969 176.466 285.493C175.308 286.017 174.052 286.288 172.781 286.288Z" fill="#292A2E"/>
<path opacity="0.8" d="M172.781 286.288H40.0498C37.8798 286.288 35.784 285.499 34.1535 284.066C32.523 282.634 31.4693 280.657 31.1892 278.505L22.4094 211.063C22.2452 209.802 22.3517 208.521 22.7219 207.305C23.0921 206.089 23.7175 204.965 24.5562 204.01C25.3949 203.055 26.4276 202.29 27.5855 201.765C28.7434 201.241 29.9998 200.97 31.2707 200.97H164.001C166.171 200.97 168.267 201.76 169.898 203.192C171.528 204.625 172.582 206.602 172.862 208.754L181.642 276.196C181.806 277.457 181.699 278.738 181.329 279.954C180.959 281.17 180.334 282.293 179.495 283.248C178.656 284.203 177.624 284.969 176.466 285.493C175.308 286.017 174.052 286.288 172.781 286.288Z" fill="white"/>
<path d="M172.781 286.968H40.0498C37.7164 286.963 35.464 286.112 33.7106 284.571C31.9571 283.031 30.8217 280.907 30.5148 278.594L21.735 211.152C21.5583 209.795 21.673 208.417 22.0714 207.108C22.4697 205.799 23.1426 204.591 24.045 203.563C24.9475 202.535 26.0587 201.712 27.3046 201.147C28.5506 200.583 29.9024 200.292 31.2701 200.292H164.001C166.335 200.297 168.588 201.149 170.342 202.689C172.095 204.23 173.231 206.354 173.537 208.668L182.317 276.11C182.493 277.466 182.379 278.845 181.98 280.153C181.582 281.462 180.909 282.67 180.006 283.698C179.104 284.726 177.992 285.55 176.747 286.114C175.501 286.678 174.149 286.97 172.781 286.97V286.968ZM31.2701 201.65C30.0958 201.65 28.9351 201.901 27.8654 202.385C26.7958 202.87 25.8417 203.577 25.0669 204.459C24.2921 205.342 23.7144 206.379 23.3724 207.503C23.0305 208.627 22.932 209.81 23.0837 210.975L31.8628 278.417C32.1263 280.404 33.1012 282.227 34.6067 283.55C36.1122 284.872 38.0462 285.604 40.0498 285.608H172.781C173.956 285.608 175.117 285.358 176.186 284.873C177.256 284.389 178.211 283.682 178.985 282.799C179.76 281.916 180.338 280.878 180.68 279.754C181.022 278.63 181.12 277.447 180.968 276.282L172.188 208.841C171.925 206.854 170.95 205.03 169.444 203.708C167.939 202.386 166.005 201.655 164.001 201.65H31.2701Z" fill="#292A2E"/>
<path d="M180.287 286.288H47.5556C45.3855 286.288 43.2896 285.499 41.659 284.066C40.0284 282.634 38.9746 280.657 38.6943 278.505L29.9145 211.063C29.7505 209.802 29.8573 208.521 30.2276 207.305C30.5978 206.089 31.2232 204.966 32.0618 204.011C32.9005 203.055 33.9331 202.29 35.0909 201.766C36.2487 201.242 37.505 200.97 38.7759 200.97H171.507C173.677 200.97 175.773 201.76 177.404 203.192C179.034 204.625 180.088 206.602 180.369 208.754L189.148 276.196C189.312 277.457 189.206 278.738 188.835 279.954C188.465 281.17 187.84 282.293 187.001 283.248C186.162 284.203 185.13 284.969 183.972 285.493C182.814 286.017 181.558 286.288 180.287 286.288V286.288Z" fill="white"/>
<path d="M180.287 286.968H47.5556C45.2221 286.963 42.9697 286.112 41.2162 284.572C39.4628 283.032 38.3273 280.908 38.0206 278.594L29.2408 211.152C29.0642 209.795 29.1788 208.417 29.5772 207.108C29.9755 205.799 30.6484 204.591 31.5508 203.563C32.4533 202.535 33.5645 201.712 34.8105 201.147C36.0564 200.583 37.4083 200.292 38.7759 200.292H171.507C173.841 200.297 176.094 201.149 177.847 202.689C179.601 204.23 180.736 206.354 181.042 208.668L189.822 276.11C189.999 277.466 189.884 278.845 189.486 280.153C189.087 281.462 188.415 282.671 187.512 283.699C186.61 284.726 185.498 285.55 184.252 286.114C183.007 286.678 181.655 286.97 180.287 286.97V286.968ZM38.7759 201.65C37.6016 201.65 36.4409 201.901 35.3712 202.385C34.3015 202.87 33.3473 203.577 32.5725 204.459C31.7976 205.342 31.2199 206.379 30.8779 207.503C30.5358 208.627 30.4373 209.81 30.5889 210.975L39.3687 278.417C39.6318 280.404 40.6066 282.228 42.1122 283.55C43.6178 284.873 45.5519 285.604 47.5556 285.608H180.287C181.462 285.609 182.623 285.358 183.693 284.874C184.762 284.389 185.717 283.682 186.492 282.799C187.267 281.916 187.844 280.878 188.186 279.754C188.528 278.631 188.627 277.447 188.475 276.282L179.695 208.841C179.432 206.854 178.457 205.03 176.951 203.707C175.446 202.384 173.512 201.653 171.508 201.648L38.7759 201.65Z" fill="#292A2E"/>
<path d="M367.484 550.472C367.484 550.472 371.129 569.372 388.819 570.425C406.509 571.477 402.674 585.575 402.674 585.575H335.07V551.79L367.484 550.472Z" fill="#EDEDED"/>
<path d="M238.871 538.54C238.871 538.54 233.802 557.108 249.211 565.864C264.621 574.62 254.957 585.575 254.957 585.575L194.296 555.723L209.205 525.408L238.871 538.54Z" fill="#EDEDED"/>
<path d="M184.436 98.1572C184.436 98.1572 193.256 91.498 195.441 76.1696C197.133 64.3009 186.188 71.9896 186.188 71.9896C186.188 71.9896 187.324 63.4326 181.09 64.2812C174.856 65.1298 171.369 74.1207 171.369 74.1207" fill="#543C27"/>
<path d="M148.874 65.2828C148.874 65.2828 117.946 68.5999 129.126 110.52L131.863 110.703L137.419 111.076" fill="#543C27"/>
<path d="M179.256 154.3C179.12 154.282 177.611 179.323 148.524 177.142C128.388 175.634 121.209 154.264 120.747 154.264C122.918 153.802 125.601 153.102 126.667 152.861C128.991 152.322 131.096 151.087 132.701 149.322C134.306 147.557 135.336 145.345 135.653 142.98C136.243 139.43 135.245 121.269 135.551 117.677L166.46 124.578C166.028 132.164 163.005 149.749 173.598 152.861C175.363 153.376 177.262 153.849 179.256 154.3Z" fill="#F5CFAC"/>
<path opacity="0.52" d="M166.894 145.674C166.41 144.114 166.098 142.505 165.964 140.876C165.625 137.16 165.693 133.417 166.168 129.716C159.886 128.868 153.967 126.274 149.085 122.229C148.511 124.349 145.355 133.613 146.23 135.629C147.878 139.438 155.64 145.674 166.894 145.674Z" fill="#543C27"/>
<path d="M160.515 140.718C148.32 139.624 133.725 131.918 133.515 115.36L133.325 100.422C133.115 83.8644 141.638 70.3318 157.223 70.1339C172.808 69.9354 184.628 83.2095 184.838 99.766L184.922 106.38C184.911 108.651 184.746 110.919 184.426 113.168C183.627 119.118 182.387 128.164 178.351 134.284C174.539 140.06 168.305 141.417 160.515 140.718Z" fill="#F5CFAC"/>
<path d="M179.691 109.563C180.751 109.563 181.611 108.704 181.611 107.643C181.611 106.583 180.751 105.723 179.691 105.723C178.631 105.723 177.771 106.583 177.771 107.643C177.771 108.704 178.631 109.563 179.691 109.563Z" fill="#543C27"/>
<path d="M160.936 108.386C161.996 108.386 162.856 107.527 162.856 106.466C162.856 105.405 161.996 104.546 160.936 104.546C159.876 104.546 159.016 105.405 159.016 106.466C159.016 107.527 159.876 108.386 160.936 108.386Z" fill="#543C27"/>
<path d="M134.547 120.392C129.811 120.453 125.907 115.433 125.846 110.696C125.784 105.958 129.591 103.297 134.328 103.237L136.808 106.38L138.618 120.341L134.547 120.392Z" fill="#F5CFAC"/>
<path d="M139.256 112.78C139.256 112.78 140.856 89.3519 147.958 87.9056C152.688 86.942 164.159 93.6529 174.783 91.6258C179.431 90.7418 183.844 91.8903 184.293 94.086C184.47 94.9558 187.366 82.4581 180.087 72.9763C174.292 65.4284 155.326 63.2932 146.698 65.7684C122.808 72.6241 133.35 104.268 133.35 104.268L134.415 112.345L139.256 112.78Z" fill="#543C27"/>
<path d="M169.032 120.055C169.042 120.056 169.052 120.056 169.063 120.055C170.589 120.039 173.147 119.844 173.137 118.701C173.127 117.755 170.435 107.566 170.127 106.408C170.093 106.317 170.026 106.243 169.941 106.199C169.855 106.154 169.756 106.144 169.662 106.169C169.569 106.193 169.489 106.252 169.436 106.333C169.384 106.414 169.363 106.512 169.379 106.607C170.575 111.119 172.356 118.066 172.363 118.711C172.216 118.983 170.639 119.262 169.059 119.278C168.959 119.281 168.864 119.321 168.793 119.391C168.722 119.461 168.681 119.556 168.678 119.656C168.675 119.755 168.711 119.852 168.777 119.927C168.844 120.001 168.936 120.047 169.035 120.055H169.032Z" fill="#543C27"/>
<path d="M174.242 97.231C175.846 96.7894 177.54 96.7894 179.144 97.231C179.932 97.4428 180.683 97.772 181.373 98.2075C182.056 98.6338 182.681 99.1447 183.235 99.728C183.342 99.8309 183.403 99.9713 183.407 100.119C183.411 100.267 183.357 100.41 183.257 100.519C183.156 100.627 183.017 100.692 182.869 100.699C182.722 100.707 182.577 100.656 182.467 100.558L182.432 100.528C181.919 100.053 181.348 99.6438 180.732 99.3111C180.129 98.9803 179.478 98.743 178.804 98.6073C177.476 98.328 176.097 98.405 174.808 98.8304L174.754 98.8494C174.541 98.9246 174.308 98.9122 174.104 98.815C173.901 98.7178 173.744 98.5436 173.669 98.3309C173.594 98.1182 173.606 97.8843 173.703 97.6807C173.8 97.4771 173.974 97.3205 174.187 97.2453L174.242 97.231Z" fill="#543C27"/>
<path d="M162.884 98.1946C161.663 97.6013 160.308 97.3411 158.955 97.4405C158.268 97.4851 157.591 97.6337 156.949 97.8811C156.296 98.1291 155.677 98.4581 155.105 98.8603L155.069 98.8848C154.946 98.9634 154.798 98.9917 154.655 98.9639C154.512 98.936 154.385 98.8542 154.301 98.7353C154.217 98.6164 154.182 98.4697 154.203 98.3255C154.224 98.1814 154.3 98.0509 154.415 97.9613C155.042 97.4572 155.73 97.0341 156.463 96.702C157.205 96.363 157.994 96.137 158.803 96.0315C159.613 95.9176 160.435 95.9156 161.246 96.0254C162.078 96.1289 162.892 96.3503 163.662 96.6829C163.869 96.7731 164.032 96.942 164.115 97.1524C164.198 97.3628 164.194 97.5975 164.103 97.8049C164.013 98.0123 163.844 98.1754 163.634 98.2583C163.424 98.3412 163.189 98.3371 162.982 98.2469C162.966 98.2401 162.95 98.2326 162.935 98.2245L162.884 98.1946Z" fill="#543C27"/>
<path d="M171.96 81.1029C175.465 80.3703 177.433 75.5923 176.355 70.431C175.277 65.2697 171.562 61.6796 168.056 62.4122C164.55 63.1449 162.582 67.9229 163.66 73.0841C164.738 78.2454 168.454 81.8356 171.96 81.1029Z" fill="#543C27"/>
<path d="M201.3 533.295L252.455 371.871H159.729C141.102 371.871 133.337 356.072 133.337 337.441C133.337 318.811 151.649 302.478 170.274 302.478H295.421C306.781 302.478 319.519 309.428 325.755 318.928C331.99 328.427 330.304 343.147 325.787 353.574L243.869 552.586" fill="#262626"/>
<path opacity="0.8" d="M201.3 533.295L252.455 371.871H159.729C141.102 371.871 133.337 356.072 133.337 337.441C133.337 318.811 151.649 302.478 170.274 302.478H295.421C306.781 302.478 319.519 309.428 325.755 318.928C331.99 328.427 330.304 343.147 325.787 353.574L243.869 552.586" fill="#0A0A0A"/>
<path d="M331.182 568.024L245.647 371.871L133.336 371.864C107.02 369.8 94.9672 355.374 95.3506 336.747C95.7285 318.357 105.038 300.192 123.34 300.192H274.716C288.258 300.471 298.912 315.44 303.935 328.021L375.044 556.015" fill="#262626"/>
<path d="M87.6904 300.417C87.6904 300.417 82.7026 332.952 90.6089 351.041C100.479 373.624 137.48 371.864 137.48 371.864L135.395 300.193L87.6904 300.417Z" fill="#262626"/>
<path d="M307.154 299.778L227.82 283.334C224.514 282.649 221.434 281.141 218.865 278.949C216.297 276.758 214.322 273.953 213.125 270.796L181.921 188.549C180.971 186.08 180.518 183.449 180.588 180.804C180.657 178.16 181.249 175.556 182.328 173.141C183.407 170.726 184.952 168.549 186.875 166.733C188.798 164.917 191.06 163.499 193.532 162.561C196.005 161.622 198.638 161.182 201.281 161.264C203.924 161.347 206.525 161.951 208.934 163.042C211.343 164.132 213.512 165.689 215.318 167.621C217.124 169.553 218.531 171.823 219.457 174.3L246.753 246.244L315.302 260.451C315.302 260.451 308.53 300.062 307.154 299.778Z" fill="#43B1EF"/>
<path d="M215.395 209.438C214.48 220.205 207.985 287.372 207.102 300.634H87.7428C87.0568 288.673 83.9773 236.374 81.377 212.982C78.8943 190.664 75.4144 180.508 78.2737 173.572C83.3165 161.34 99.3683 155.876 110.238 154.405C116.875 153.506 126.859 152.861 126.859 152.861C126.859 152.861 127.704 169.965 147.859 170.917C175.296 172.209 173.464 152.861 173.6 152.861C178.044 152.861 202.239 156.095 208.289 160.039C216.834 165.61 219.359 173.201 219.459 180.177C219.573 188.207 216.434 197.225 215.395 209.438Z" fill="#43B1EF"/>
<path d="M210.705 264.319H210.676C210.632 264.315 210.588 264.302 210.548 264.282C210.509 264.262 210.473 264.233 210.445 264.199C210.416 264.165 210.394 264.126 210.38 264.083C210.367 264.041 210.362 263.996 210.365 263.951L213.464 226.719C213.466 226.674 213.478 226.63 213.498 226.59C213.518 226.55 213.546 226.514 213.58 226.485C213.615 226.456 213.655 226.434 213.697 226.421C213.74 226.408 213.786 226.403 213.83 226.408C213.875 226.412 213.918 226.424 213.958 226.445C213.998 226.465 214.033 226.493 214.062 226.527C214.091 226.561 214.112 226.601 214.126 226.643C214.14 226.686 214.145 226.731 214.141 226.775L211.042 264.008C211.035 264.092 210.996 264.171 210.934 264.229C210.871 264.286 210.79 264.318 210.705 264.319Z" fill="#0C0C0C"/>
<path d="M229.894 293.25L256.083 212.723C256.543 211.308 257.439 210.074 258.643 209.2C259.847 208.326 261.296 207.855 262.784 207.855H369.482C370.594 207.854 371.69 208.118 372.681 208.623C373.672 209.128 374.53 209.861 375.183 210.761C375.837 211.661 376.268 212.703 376.442 213.802C376.616 214.901 376.527 216.025 376.183 217.083L349.993 297.61C349.533 299.025 348.637 300.258 347.433 301.133C346.23 302.007 344.78 302.478 343.293 302.478H236.595C235.482 302.479 234.386 302.215 233.395 301.71C232.404 301.205 231.546 300.472 230.893 299.572C230.239 298.672 229.808 297.63 229.634 296.531C229.461 295.432 229.55 294.308 229.894 293.25V293.25Z" fill="#CECECE"/>
<path opacity="0.2" d="M229.894 293.25L256.083 212.723C256.543 211.308 257.439 210.074 258.643 209.2C259.847 208.326 261.296 207.855 262.784 207.855H369.482C370.594 207.854 371.69 208.118 372.681 208.623C373.672 209.128 374.53 209.861 375.183 210.761C375.837 211.661 376.268 212.703 376.442 213.802C376.616 214.901 376.527 216.025 376.183 217.083L349.993 297.61C349.533 299.025 348.637 300.258 347.433 301.133C346.23 302.007 344.78 302.478 343.293 302.478H236.595C235.482 302.479 234.386 302.215 233.395 301.71C232.404 301.205 231.546 300.472 230.893 299.572C230.239 298.672 229.808 297.63 229.634 296.531C229.461 295.432 229.55 294.308 229.894 293.25V293.25Z" fill="white"/>
<path d="M251.257 295.949H179.834C178.054 295.949 176.611 297.392 176.611 299.172V299.255C176.611 301.035 178.054 302.478 179.834 302.478H251.257C253.037 302.478 254.48 301.035 254.48 299.255V299.172C254.48 297.392 253.037 295.949 251.257 295.949Z" fill="#CECECE"/>
<path opacity="0.2" d="M251.257 295.949H179.834C178.054 295.949 176.611 297.392 176.611 299.172V299.255C176.611 301.035 178.054 302.478 179.834 302.478H251.257C253.037 302.478 254.48 301.035 254.48 299.255V299.172C254.48 297.392 253.037 295.949 251.257 295.949Z" fill="white"/>
<path d="M303.038 270.288C309.218 270.288 314.228 265.277 314.228 259.095C314.228 252.913 309.218 247.901 303.038 247.901C296.858 247.901 291.848 252.913 291.848 259.095C291.848 265.277 296.858 270.288 303.038 270.288Z" fill="white"/>
<path d="M216.477 194.428H188.105V229.233H216.477V194.428Z" fill="white"/>
<path d="M188.105 223.452C185.807 223.452 183.561 222.77 181.65 221.493C179.739 220.216 178.25 218.401 177.371 216.277C176.491 214.154 176.261 211.817 176.709 209.562C177.158 207.308 178.264 205.237 179.889 203.612C181.514 201.987 183.584 200.88 185.838 200.431C188.092 199.983 190.428 200.213 192.551 201.093C194.674 201.972 196.489 203.462 197.765 205.373C199.042 207.284 199.724 209.531 199.724 211.83C199.72 214.911 198.495 217.865 196.317 220.044C194.139 222.223 191.185 223.448 188.105 223.452V223.452ZM188.105 204.969C186.748 204.969 185.422 205.371 184.294 206.125C183.165 206.879 182.286 207.951 181.767 209.205C181.248 210.459 181.112 211.838 181.377 213.169C181.642 214.5 182.295 215.723 183.254 216.683C184.214 217.642 185.436 218.296 186.767 218.561C188.098 218.825 189.477 218.689 190.731 218.17C191.984 217.65 193.055 216.771 193.809 215.642C194.563 214.514 194.965 213.187 194.965 211.83C194.963 210.011 194.24 208.266 192.954 206.98C191.667 205.694 189.924 204.97 188.105 204.969Z" fill="white"/>
<path d="M189.741 216.986C189.483 216.314 188.996 215.754 188.366 215.405C187.736 215.056 187.004 214.939 186.297 215.076C186.31 215.043 186.317 215.009 186.318 214.973L187.269 214.548C187.936 214.264 188.484 213.759 188.822 213.117C189.159 212.476 189.264 211.738 189.119 211.027C189.019 210.584 188.822 210.168 188.542 209.81C188.262 209.452 187.906 209.161 187.5 208.957C187.094 208.753 186.648 208.642 186.193 208.632C185.739 208.621 185.288 208.712 184.873 208.897L182.628 209.901C182.628 209.892 182.628 209.884 182.624 209.875C182.615 209.857 182.604 209.84 182.591 209.824C183.144 209.407 183.539 208.815 183.713 208.145C183.886 207.474 183.828 206.764 183.546 206.131C182.923 204.444 180.713 204.31 179.252 204.962L173.383 207.33L175.154 205.533C175.709 204.947 176.021 204.172 176.027 203.365C176.033 202.558 175.732 201.778 175.186 201.184C174.893 200.888 174.542 200.654 174.156 200.497C173.77 200.341 173.355 200.264 172.938 200.273C172.522 200.282 172.111 200.376 171.732 200.548C171.352 200.721 171.012 200.97 170.732 201.278L149.861 224.077L156.999 230.953C159.216 233.089 162.019 234.514 165.051 235.046C168.082 235.577 171.203 235.191 174.014 233.936L186.734 228.232C187.401 227.948 187.95 227.443 188.287 226.802C188.624 226.16 188.729 225.422 188.584 224.712C188.44 224.074 188.095 223.499 187.602 223.071C187.108 222.643 186.49 222.384 185.839 222.332C185.846 222.296 185.846 222.26 185.839 222.225C185.832 222.189 185.819 222.156 185.799 222.126C185.778 222.096 185.753 222.07 185.723 222.05C185.693 222.03 185.659 222.017 185.624 222.01L187.972 220.961C188.716 220.646 189.312 220.061 189.641 219.323C189.969 218.585 190.005 217.75 189.741 216.986V216.986Z" fill="#F5CFAC"/>
<path opacity="0.2" d="M178.384 211.83C178.317 211.831 178.252 211.807 178.2 211.765C178.148 211.722 178.112 211.662 178.1 211.596C178.087 211.53 178.098 211.461 178.131 211.403C178.163 211.344 178.216 211.298 178.278 211.274L182.248 209.71C182.284 209.696 182.321 209.689 182.359 209.69C182.397 209.69 182.434 209.698 182.469 209.713C182.504 209.728 182.535 209.75 182.561 209.777C182.588 209.805 182.608 209.837 182.622 209.872C182.636 209.907 182.643 209.945 182.642 209.983C182.642 210.021 182.633 210.058 182.618 210.093C182.603 210.127 182.582 210.159 182.554 210.185C182.527 210.211 182.495 210.232 182.46 210.246L178.49 211.81C178.456 211.823 178.42 211.83 178.384 211.83V211.83Z" fill="#0C0C0C"/>
<path opacity="0.2" d="M180.6 217.446C180.533 217.446 180.468 217.422 180.417 217.38C180.365 217.337 180.33 217.278 180.318 217.212C180.305 217.147 180.315 217.079 180.347 217.02C180.379 216.961 180.43 216.915 180.492 216.89L185.923 214.705C185.993 214.681 186.07 214.684 186.137 214.715C186.205 214.746 186.258 214.801 186.286 214.87C186.313 214.939 186.313 215.016 186.286 215.085C186.258 215.154 186.205 215.209 186.138 215.24L180.708 217.425C180.673 217.439 180.637 217.446 180.6 217.446V217.446Z" fill="#0C0C0C"/>
<path opacity="0.2" d="M182.968 223.543C182.901 223.543 182.835 223.519 182.783 223.476C182.732 223.432 182.697 223.372 182.685 223.306C182.673 223.239 182.684 223.171 182.717 223.112C182.751 223.053 182.804 223.008 182.867 222.984L185.456 222.013C185.527 221.986 185.607 221.988 185.676 222.02C185.746 222.051 185.8 222.109 185.828 222.181C185.855 222.252 185.852 222.332 185.821 222.401C185.789 222.471 185.731 222.526 185.66 222.553L183.071 223.524C183.038 223.537 183.003 223.543 182.968 223.543V223.543Z" fill="#0C0C0C"/>
<path d="M162.917 203C163.016 203 163.114 202.973 163.199 202.921C163.284 202.869 163.353 202.795 163.398 202.706C164.629 200.31 166.159 197.326 165.986 194.199C165.849 191.711 164.682 189.502 163.555 187.367C162.826 186.077 162.206 184.73 161.699 183.338C161.08 181.417 160.924 179.378 161.244 177.385C161.563 175.393 162.348 173.504 163.536 171.872C163.58 171.816 163.613 171.75 163.632 171.681C163.651 171.611 163.655 171.538 163.646 171.467C163.636 171.396 163.612 171.327 163.575 171.265C163.538 171.203 163.489 171.149 163.431 171.106C163.373 171.063 163.307 171.032 163.237 171.015C163.167 170.998 163.094 170.995 163.023 171.007C162.951 171.019 162.883 171.045 162.822 171.083C162.761 171.122 162.708 171.172 162.667 171.231C161.377 173.002 160.523 175.052 160.176 177.214C159.828 179.377 159.997 181.591 160.668 183.676C161.193 185.126 161.837 186.529 162.595 187.872C163.719 189.998 164.78 192.007 164.904 194.259C165.061 197.094 163.665 199.814 162.433 202.214C162.391 202.296 162.371 202.388 162.374 202.48C162.377 202.573 162.405 202.663 162.453 202.741C162.501 202.82 162.569 202.886 162.649 202.931C162.73 202.976 162.821 203 162.913 203H162.917Z" fill="white"/>
<path d="M145.083 205C144.984 205 144.886 204.973 144.801 204.921C144.716 204.869 144.647 204.795 144.602 204.706C143.371 202.31 141.841 199.326 142.013 196.199C142.151 193.711 143.318 191.502 144.445 189.367C145.173 188.077 145.794 186.73 146.301 185.338C146.92 183.417 147.076 181.378 146.756 179.385C146.437 177.393 145.652 175.504 144.464 173.872C144.419 173.816 144.387 173.75 144.368 173.681C144.349 173.611 144.344 173.538 144.354 173.467C144.364 173.396 144.388 173.327 144.425 173.265C144.462 173.203 144.51 173.149 144.569 173.106C144.627 173.063 144.693 173.032 144.763 173.015C144.833 172.998 144.906 172.995 144.977 173.007C145.048 173.019 145.117 173.045 145.178 173.083C145.239 173.122 145.292 173.172 145.333 173.231C146.623 175.002 147.477 177.052 147.824 179.214C148.171 181.377 148.003 183.591 147.332 185.676C146.807 187.126 146.163 188.529 145.405 189.872C144.281 191.998 143.22 194.007 143.096 196.259C142.939 199.094 144.335 201.814 145.567 204.214C145.609 204.296 145.629 204.388 145.626 204.48C145.622 204.573 145.595 204.663 145.547 204.741C145.499 204.82 145.431 204.886 145.351 204.931C145.27 204.976 145.179 205 145.086 205H145.083Z" fill="white"/>
<path d="M173.791 242.177L73.6883 283.615C70.0792 285.093 66.1179 285.487 62.2884 284.75C58.459 284.012 54.9272 282.175 52.1246 279.463C49.322 276.75 47.37 273.28 46.507 269.476C45.6441 265.671 45.9076 261.698 47.2654 258.041L77.1214 176.473C80.9814 166.078 91.855 160.1 102.249 163.962C107.239 165.816 111.289 169.577 113.508 174.418C115.726 179.259 115.931 184.783 114.077 189.776L100.459 228.382L159.127 205.758" fill="#43B1EF"/>
<path d="M173.547 242.546C173.493 242.546 173.441 242.53 173.397 242.5C173.353 242.471 173.318 242.428 173.298 242.379L158.733 206.204L100.262 228.775C100.213 228.794 100.16 228.798 100.11 228.788C100.059 228.777 100.012 228.751 99.9756 228.715C99.9389 228.678 99.9138 228.631 99.9033 228.58C99.8927 228.53 99.8972 228.477 99.9162 228.428L108.958 205.216C108.983 205.15 109.034 205.097 109.099 205.068C109.164 205.04 109.238 205.038 109.304 205.064C109.37 205.09 109.423 205.141 109.452 205.206C109.48 205.271 109.482 205.345 109.456 205.411L100.635 228.056L158.787 205.608C158.852 205.583 158.925 205.584 158.99 205.612C159.054 205.64 159.105 205.692 159.131 205.757L173.795 242.179C173.82 242.245 173.819 242.318 173.791 242.383C173.764 242.448 173.712 242.5 173.647 242.527C173.615 242.54 173.581 242.546 173.547 242.546V242.546Z" fill="#0C0C0C"/>
<path d="M81.8977 235.958C81.8351 235.959 81.7743 235.937 81.7259 235.897C81.6775 235.858 81.6446 235.802 81.6329 235.741C81.6212 235.679 81.6316 235.615 81.6621 235.561C81.6926 235.506 81.7414 235.464 81.7999 235.441L100.113 228.233C100.146 228.22 100.181 228.213 100.217 228.213C100.252 228.213 100.287 228.221 100.32 228.235C100.353 228.248 100.382 228.269 100.407 228.294C100.432 228.32 100.451 228.35 100.464 228.383C100.477 228.416 100.484 228.451 100.483 228.487C100.482 228.522 100.474 228.557 100.46 228.59C100.446 228.622 100.425 228.651 100.399 228.676C100.373 228.7 100.343 228.719 100.31 228.732L81.9956 235.94C81.9644 235.952 81.9312 235.958 81.8977 235.958V235.958Z" fill="#0C0C0C"/>
<path d="M86.1629 278.777C86.1008 278.777 86.0406 278.755 85.9926 278.716C85.9445 278.677 85.9116 278.622 85.8996 278.561C85.8875 278.5 85.897 278.437 85.9265 278.383C85.9559 278.328 86.0034 278.285 86.0609 278.262L173.447 242.032C173.48 242.018 173.515 242.011 173.55 242.011C173.585 242.012 173.62 242.018 173.652 242.032C173.684 242.045 173.714 242.065 173.739 242.09C173.763 242.115 173.783 242.144 173.797 242.177C173.81 242.209 173.817 242.244 173.817 242.279C173.817 242.314 173.81 242.349 173.796 242.382C173.783 242.414 173.763 242.443 173.738 242.468C173.713 242.493 173.684 242.513 173.651 242.526L86.2649 278.756C86.2326 278.77 86.1979 278.777 86.1629 278.777Z" fill="#0C0C0C"/>
<path d="M529.816 496.825C529.636 496.825 529.463 496.753 529.336 496.626C528.378 495.668 526.817 478.09 522.611 425.755C520.89 404.34 519.265 384.113 518.079 371.821C517.994 370.943 517.654 370.84 517.542 370.807C515.919 370.317 510.981 374.212 508.224 377.622C508.111 377.762 507.946 377.852 507.767 377.871C507.588 377.89 507.408 377.837 507.268 377.724C507.128 377.61 507.038 377.446 507.019 377.266C507 377.087 507.053 376.907 507.166 376.767C508.989 374.512 514.931 368.6 517.933 369.504C518.539 369.686 519.293 370.213 519.433 371.69C520.62 383.993 522.245 404.225 523.966 425.645C526.522 457.448 529.417 493.479 530.368 495.748C530.441 495.849 530.485 495.969 530.494 496.094C530.504 496.219 530.478 496.344 530.421 496.455C530.364 496.566 530.278 496.66 530.171 496.725C530.064 496.79 529.941 496.825 529.816 496.825V496.825Z" fill="#494949"/>
<path d="M516.333 394.377C527.613 385.332 531.352 371.254 524.684 362.932C518.015 354.611 503.464 355.197 492.184 364.242C480.903 373.287 477.164 387.365 483.833 395.686C490.501 404.008 505.052 403.421 516.333 394.377Z" fill="#F2B9FB"/>
<path opacity="0.2" d="M516.333 394.377C527.613 385.332 531.352 371.254 524.684 362.932C518.015 354.611 503.464 355.197 492.184 364.242C480.903 373.287 477.164 387.365 483.833 395.686C490.501 404.008 505.052 403.421 516.333 394.377Z" fill="white"/>
<path d="M486.995 397.803C486.93 397.803 486.867 397.785 486.812 397.75C486.758 397.716 486.714 397.666 486.687 397.608C486.66 397.549 486.649 397.484 486.658 397.42C486.666 397.356 486.692 397.295 486.734 397.246L518.883 358.466C518.911 358.431 518.946 358.402 518.986 358.38C519.025 358.359 519.069 358.345 519.114 358.341C519.159 358.336 519.204 358.341 519.247 358.354C519.29 358.367 519.331 358.389 519.365 358.418C519.4 358.446 519.429 358.482 519.45 358.522C519.47 358.562 519.483 358.606 519.487 358.651C519.491 358.696 519.485 358.741 519.471 358.784C519.457 358.827 519.435 358.867 519.406 358.901L487.256 397.68C487.225 397.719 487.185 397.75 487.139 397.771C487.094 397.792 487.045 397.803 486.995 397.803Z" fill="white"/>
<path d="M536.828 488.511C536.72 488.511 536.613 488.485 536.516 488.436C536.42 488.386 536.337 488.314 536.274 488.225C536.211 488.137 536.17 488.035 536.155 487.927C536.14 487.82 536.15 487.71 536.186 487.608L548.262 452.869C548.618 451.848 549.224 450.933 550.024 450.207C550.825 449.481 551.795 448.968 552.846 448.714C553.896 448.461 554.993 448.475 556.037 448.755C557.081 449.036 558.037 449.574 558.819 450.32L565.203 456.421C565.333 456.546 565.409 456.717 565.413 456.897C565.417 457.078 565.349 457.252 565.225 457.383C565.1 457.513 564.929 457.588 564.749 457.593C564.568 457.597 564.394 457.529 564.264 457.404L557.88 451.304C557.262 450.715 556.507 450.291 555.684 450.069C554.86 449.848 553.994 449.837 553.165 450.037C552.336 450.237 551.57 450.642 550.938 451.215C550.306 451.788 549.827 452.51 549.546 453.315L537.47 488.054C537.424 488.188 537.337 488.303 537.222 488.385C537.107 488.467 536.97 488.511 536.828 488.511Z" fill="#494949"/>
<path d="M583.041 475.655C591.401 469.036 590.904 454.478 581.931 443.139C572.959 431.8 558.907 427.973 550.547 434.592C542.187 441.211 542.684 455.769 551.657 467.108C560.63 478.447 574.681 482.274 583.041 475.655Z" fill="#F2B9FB"/>
<path d="M524.33 494.61C524.177 494.609 524.029 494.558 523.909 494.463C523.789 494.368 523.705 494.236 523.669 494.087L503.404 409.33C503.266 408.752 502.97 408.224 502.551 407.803C502.132 407.382 501.605 407.085 501.028 406.945C500.45 406.804 499.846 406.826 499.28 407.006C498.714 407.187 498.209 407.521 497.821 407.97L491.574 415.191C491.516 415.259 491.444 415.314 491.365 415.354C491.285 415.394 491.198 415.418 491.109 415.424C491.02 415.431 490.93 415.42 490.845 415.391C490.761 415.363 490.682 415.319 490.615 415.26C490.547 415.202 490.492 415.131 490.452 415.051C490.412 414.971 490.388 414.884 490.381 414.795C490.375 414.706 490.386 414.616 490.414 414.532C490.442 414.447 490.487 414.368 490.545 414.301L496.793 407.08C497.345 406.442 498.063 405.969 498.867 405.713C499.671 405.457 500.53 405.427 501.349 405.627C502.169 405.827 502.917 406.25 503.513 406.848C504.108 407.446 504.527 408.196 504.724 409.017L524.989 493.774C525.031 493.949 525.001 494.134 524.907 494.288C524.813 494.441 524.661 494.551 524.486 494.593C524.435 494.605 524.382 494.61 524.33 494.61V494.61Z" fill="#494949"/>
<path d="M516.856 434.019C519.319 419.77 512.799 406.745 502.293 404.927C491.787 403.11 481.273 413.189 478.81 427.439C476.346 441.688 482.866 454.713 493.372 456.531C503.878 458.348 514.392 448.269 516.856 434.019Z" fill="#F2B9FB"/>
<path d="M529.818 496.825C529.789 496.825 529.761 496.823 529.733 496.819C529.554 496.798 529.391 496.705 529.28 496.563C529.169 496.421 529.119 496.241 529.141 496.062L542.083 390.963C542.223 389.818 542.692 388.738 543.432 387.852C544.172 386.967 545.152 386.315 546.254 385.973C547.356 385.632 548.533 385.616 549.644 385.929C550.755 386.241 551.751 386.867 552.514 387.733L567.306 404.49C567.425 404.625 567.486 404.802 567.475 404.982C567.463 405.162 567.381 405.331 567.246 405.45C567.111 405.569 566.934 405.63 566.754 405.619C566.574 405.608 566.405 405.525 566.286 405.39L551.495 388.632C550.905 387.963 550.134 387.479 549.275 387.238C548.417 386.997 547.507 387.009 546.655 387.273C545.803 387.538 545.045 388.042 544.474 388.727C543.902 389.412 543.54 390.247 543.432 391.133L530.489 496.228C530.468 496.392 530.389 496.543 530.266 496.653C530.142 496.763 529.983 496.824 529.818 496.825Z" fill="#494949"/>
<path d="M582.473 413.801C587.634 404.469 581.562 391.229 568.911 384.23C556.26 377.23 541.821 379.121 536.66 388.453C531.499 397.785 537.571 411.025 550.222 418.025C562.873 425.025 577.313 423.134 582.473 413.801Z" fill="#F2B9FB"/>
<path opacity="0.2" d="M583.041 475.655C591.401 469.036 590.904 454.478 581.931 443.139C572.959 431.8 558.907 427.973 550.547 434.592C542.187 441.211 542.684 455.769 551.657 467.108C560.63 478.447 574.681 482.274 583.041 475.655Z" fill="white"/>
<path opacity="0.5" d="M516.856 434.019C519.319 419.77 512.799 406.745 502.293 404.927C491.787 403.11 481.273 413.189 478.81 427.439C476.346 441.688 482.866 454.713 493.372 456.531C503.878 458.348 514.392 448.269 516.856 434.019Z" fill="white"/>
<path opacity="0.5" d="M582.473 413.801C587.634 404.469 581.562 391.229 568.911 384.23C556.26 377.23 541.821 379.121 536.66 388.453C531.499 397.785 537.571 411.025 550.222 418.025C562.873 425.025 577.313 423.134 582.473 413.801Z" fill="white"/>
<path d="M546.368 586H513.264L507.779 480.054H551.854L546.368 586Z" fill="#292A2E"/>
<path opacity="0.3" d="M546.368 586H513.264L507.779 480.054H551.854L546.368 586Z" fill="white"/>
<path d="M583.041 475.991C582.99 475.991 582.939 475.979 582.893 475.957C582.847 475.935 582.806 475.902 582.774 475.862L550.279 434.799C550.223 434.728 550.198 434.638 550.208 434.549C550.218 434.459 550.264 434.377 550.335 434.321C550.405 434.265 550.495 434.24 550.585 434.25C550.674 434.261 550.756 434.306 550.812 434.377L583.307 475.439C583.347 475.489 583.372 475.549 583.379 475.613C583.386 475.676 583.375 475.741 583.347 475.798C583.32 475.856 583.276 475.904 583.222 475.938C583.168 475.972 583.105 475.991 583.041 475.991Z" fill="white"/>
<path d="M580.313 417.091C580.24 417.091 580.17 417.067 580.113 417.024L538.531 386.656C538.495 386.629 538.464 386.596 538.441 386.558C538.418 386.52 538.402 386.477 538.395 386.433C538.388 386.389 538.39 386.344 538.401 386.301C538.411 386.257 538.43 386.216 538.457 386.18C538.483 386.144 538.516 386.114 538.554 386.09C538.592 386.067 538.635 386.052 538.679 386.045C538.723 386.038 538.768 386.04 538.811 386.05C538.855 386.061 538.896 386.08 538.932 386.106L580.513 416.477C580.57 416.519 580.612 416.579 580.633 416.647C580.655 416.714 580.654 416.787 580.632 416.855C580.61 416.922 580.567 416.981 580.51 417.023C580.453 417.065 580.384 417.088 580.313 417.089V417.091Z" fill="white"/>
<path d="M491.682 456.088C491.652 456.088 491.623 456.084 491.594 456.076C491.507 456.053 491.433 455.996 491.388 455.918C491.343 455.84 491.33 455.747 491.354 455.66L504.591 406.052C504.602 406.009 504.621 405.968 504.648 405.931C504.675 405.895 504.709 405.865 504.748 405.842C504.787 405.819 504.83 405.804 504.875 405.798C504.919 405.792 504.965 405.795 505.009 405.806C505.052 405.818 505.093 405.838 505.129 405.866C505.164 405.893 505.194 405.928 505.216 405.967C505.239 406.006 505.253 406.049 505.258 406.094C505.264 406.139 505.26 406.185 505.248 406.228L492.011 455.836C491.992 455.908 491.949 455.972 491.889 456.018C491.83 456.063 491.757 456.088 491.682 456.088Z" fill="white"/>
</g>
<defs>
<clipPath id="clip0_4_3">
<rect width="594" height="586" fill="white"/>
</clipPath>
</defs>
</svg>
